<?xml version="1.0" encoding="UTF-8"?>
<svg version="1.1" xmlns="http://www.w3.org/2000/svg" width="629" height="258">
<path d="M0 0 C207.57 0 415.14 0 629 0 C629 85.14 629 170.28 629 258 C421.43 258 213.86 258 0 258 C0 172.86 0 87.72 0 0 Z " fill="#FEFEFE" transform="translate(0,0)"/>
<path d="M0 0 C96.50691244 0 96.50691244 0 116 10 C116 10.66 116 11.32 116 12 C116.70125 12.226875 117.4025 12.45375 118.125 12.6875 C127.9241527 17.16102623 134.68743174 27.84954116 138.4375 37.625 C138.99679386 39.40503572 139.51940951 41.19712186 140 43 C140.22300781 43.82371094 140.44601562 44.64742187 140.67578125 45.49609375 C144.52359083 62.69344677 142.84783342 82.66403885 134 98 C127.49812875 108.11683296 119.63212746 113.66994663 109 119 C108.01 119.66 107.02 120.32 106 121 C108.05812433 124.83569785 110.12229097 128.66811269 112.1875 132.5 C112.76564453 133.57765625 113.34378906 134.6553125 113.93945312 135.765625 C116.77020458 141.0113113 119.66972798 146.14602354 122.88061523 151.16699219 C124.78912185 154.29219779 126.35039896 157.57840249 127.9375 160.875 C130.52697704 166.15515761 133.25820837 171.22941157 136.359375 176.23046875 C138.59515326 180.00467538 140.64076964 183.87074639 142.6875 187.75 C143.0683374 188.47179443 143.4491748 189.19358887 143.84155273 189.93725586 C145.941853 193.93740896 147.97874124 197.95748248 150 202 C138.45 202 126.9 202 115 202 C105.22771089 184.46736366 95.52045214 166.90001142 86.1796875 149.1328125 C84.61693425 146.16085476 83.0358105 143.19938882 81.4453125 140.2421875 C81.02596436 139.45948486 80.60661621 138.67678223 80.17456055 137.87036133 C79.36672842 136.36326896 78.55582602 134.85781718 77.74145508 133.35424805 C75 128.22469738 75 128.22469738 75 126 C60.48 126 45.96 126 31 126 C31 151.08 31 176.16 31 202 C20.77 202 10.54 202 0 202 C0 135.34 0 68.68 0 0 Z " fill="#203766" transform="translate(382,29)"/>
<path d="M0 0 C11.55 0 23.1 0 35 0 C38.05078318 6.10156635 40.73783621 11.47576539 42.75390625 17.84375 C43.09529884 18.88565491 43.09529884 18.88565491 43.44358826 19.9486084 C44.15724206 22.13009654 44.86055677 24.31471878 45.5625 26.5 C46.49686619 29.38687375 47.43580788 32.27221732 48.37890625 35.15625 C48.6055748 35.84975555 48.83224335 36.54326111 49.06578064 37.25778198 C50.56037695 41.78590288 52.21120201 46.21115303 54.0324707 50.61621094 C55.93909586 55.31373504 57.60624742 60.10189744 59.3125 64.875 C59.70203857 65.96127686 60.09157715 67.04755371 60.49291992 68.16674805 C70.16873939 95.19694963 70.16873939 95.19694963 73.98046875 107.1015625 C75.20151305 110.57288384 76.58236398 113.96796682 77.95825195 117.38037109 C79.55327131 121.39128221 81.03192786 125.44121232 82.5 129.5 C82.82967773 130.40782227 83.15935547 131.31564453 83.49902344 132.25097656 C85.71233356 138.37012807 87.88726672 144.50237164 90.046875 150.640625 C90.31089111 151.39069824 90.57490723 152.14077148 90.84692383 152.91357422 C92.16384431 156.65665359 93.47776139 160.40074939 94.78710938 164.14648438 C97.11028768 170.77550929 99.47975269 177.36789622 102.13769531 183.87207031 C103.42674693 187.05309351 104.59195061 190.26889922 105.75 193.5 C106.17796875 194.6859375 106.6059375 195.871875 107.046875 197.09375 C108 200 108 200 108 202 C97.44 202 86.88 202 76 202 C73.42482136 196.84964272 71.43031647 192.76941842 69.78125 187.4453125 C69.21857422 185.65673828 69.21857422 185.65673828 68.64453125 183.83203125 C68.26683594 182.60871094 67.88914063 181.38539063 67.5 180.125 C66.74311088 177.68900532 65.98275019 175.25408631 65.21875 172.8203125 C64.88810547 171.75055176 64.55746094 170.68079102 64.21679688 169.57861328 C63.27350122 166.80437016 62.25951209 164.13245542 61.15258789 161.42382812 C58.61964568 155.17001372 56.48621794 148.79323247 54.33984375 142.3984375 C53.90462418 141.10900528 53.46911738 139.81966998 53.03334045 138.53042603 C51.89618842 135.16424472 50.76211559 131.79703529 49.62896729 128.42950439 C47.81329426 123.03473259 45.99367846 117.64129253 44.17251778 112.24837112 C43.54259102 110.38113367 42.91457461 108.51325208 42.28660583 106.64535522 C40.28864027 100.7210526 38.21476583 94.84621254 36 89 C35.2797038 86.89250799 34.57207074 84.78063336 33.87890625 82.6640625 C33.31139648 80.94316406 33.31139648 80.94316406 32.73242188 79.1875 C31.95516998 76.82070959 31.17911969 74.45352423 30.40429688 72.0859375 C28.40316378 66.02478056 26.29364073 60.05956358 23.87280273 54.15332031 C22.72575997 51.32341342 21.71893221 48.45776172 20.75 45.5625 C20.41484375 44.57378906 20.0796875 43.58507812 19.734375 42.56640625 C19 40 19 40 19 37 C18.34 37 17.68 37 17 37 C15.17285452 42.42153004 13.39855427 47.85800678 11.66015625 53.30859375 C11.23246316 54.64649757 10.80472803 55.98438796 10.37695312 57.32226562 C9.71930661 59.37939958 9.06271004 61.43683817 8.40942383 63.49536133 C6.13991238 70.64163583 3.7989569 77.69885283 0.93139648 84.63305664 C-0.78990659 89.00737731 -2.12224574 93.50814364 -3.5 98 C-5.40218685 104.20165026 -7.45631553 110.24091856 -9.91503906 116.24365234 C-11.92775925 121.35697612 -13.66187318 126.57082378 -15.43099976 131.77227783 C-16.14335136 133.86644932 -16.85898818 135.95947386 -17.57543945 138.05224609 C-18.56687098 140.94900162 -19.55718891 143.84613328 -20.54638672 146.74365234 C-26.85764965 165.22779707 -33.26477376 183.66521745 -40 202 C-50.56 202 -61.12 202 -72 202 C-70.62674335 195.82034507 -69.17766452 190.32660018 -66.9375 184.5 C-66.30764592 182.82457477 -65.67879088 181.14877372 -65.05078125 179.47265625 C-64.71771973 178.58723145 -64.3846582 177.70180664 -64.04150391 176.78955078 C-62.19822698 171.85254138 -60.4104774 166.89565128 -58.625 161.9375 C-58.06280762 160.37793579 -58.06280762 160.37793579 -57.48925781 158.78686523 C-54.27555017 149.83722189 -51.16058756 140.85442407 -48.09423828 131.85327148 C-46.20535793 126.34060092 -44.19053484 120.91781459 -41.9934082 115.52124023 C-40.17368236 110.9028306 -38.60132088 106.19762491 -37 101.5 C-35.11183 95.96087627 -33.21565423 90.44921697 -31 85.03125 C-28.72696409 79.44189021 -26.86362372 73.73646677 -25 68 C-22.85226225 61.38899473 -20.61293857 54.87473276 -17.98242188 48.43945312 C-16.29522917 44.24998258 -14.78036323 39.99871521 -13.25 35.75 C-12.55599396 33.83333175 -11.8619834 31.91666513 -11.16796875 30 C-10.44527613 28.00001314 -9.72262063 26.00001287 -9 24 C-7.52273208 19.91597637 -6.04311017 15.83281291 -4.5625 11.75 C-4.22057617 10.80350586 -3.87865234 9.85701172 -3.52636719 8.88183594 C-3.20958008 8.00817383 -2.89279297 7.13451172 -2.56640625 6.234375 C-2.28740479 5.46319336 -2.00840332 4.69201172 -1.72094727 3.89746094 C-1 2 -1 2 0 0 Z " fill="#1F3665" transform="translate(104,29)"/>
<path d="M0 0 C51.48 0 102.96 0 156 0 C156 8.91 156 17.82 156 27 C135.21 27 114.42 27 93 27 C93 84.75 93 142.5 93 202 C82.77 202 72.54 202 62 202 C62 144.25 62 86.5 62 27 C41.54 27 21.08 27 0 27 C0 18.09 0 9.18 0 0 Z " fill="#203766" transform="translate(195,29)"/>
<path d="M0 0 C10.23 0 20.46 0 31 0 C31 66.66 31 133.32 31 202 C20.77 202 10.54 202 0 202 C0 135.34 0 68.68 0 0 Z " fill="#1E3564" transform="translate(557,29)"/>
<path d="M0 0 C7.13625 -0.061875 14.2725 -0.12375 21.625 -0.1875 C24.95779053 -0.22846802 24.95779053 -0.22846802 28.35791016 -0.27026367 C42.181908 -0.36947915 57.27072173 -0.46183646 69 8 C77.23874661 16.30116135 80.18389885 25.2437377 80.25 36.6875 C80.270625 37.56083984 80.29125 38.43417969 80.3125 39.33398438 C80.36946968 48.86928513 77.22143062 56.71473168 71 64 C60.90245006 72.48700882 50.23978321 73.16092916 37.59765625 73.09765625 C36.64145386 73.09664917 35.68525146 73.09564209 34.70007324 73.09460449 C31.15420316 73.08940259 27.60835028 73.07544148 24.0625 73.0625 C16.121875 73.041875 8.18125 73.02125 0 73 C0 48.91 0 24.82 0 0 Z " fill="#FDFEFE" transform="translate(413,55)"/>
<path d="M0 0 C0.66 0 1.32 0 2 0 C2.1875 3.375 2.1875 3.375 2 7 C1.01 7.66 0.02 8.32 -1 9 C-1.125 2.25 -1.125 2.25 0 0 Z " fill="#2F4571" transform="translate(494,87)"/>
<path d="M0 0 C0.66 0.33 1.32 0.66 2 1 C1.67 2.98 1.34 4.96 1 7 C-0.32 7.33 -1.64 7.66 -3 8 C-2.690625 7.236875 -2.38125 6.47375 -2.0625 5.6875 C-1.32106407 3.81210323 -0.63771783 1.91315348 0 0 Z " fill="#2B3F6D" transform="translate(491,106)"/>
</svg>
